<svg width="35" height="35" viewBox="0 0 35 35" fill="none" xmlns="http://www.w3.org/2000/svg">
<g id="arrow-up-right">
<path id="Vector" d="M26.1335 9.65417C25.9855 9.29782 25.7023 9.01465 25.346 8.86667C25.1707 8.79194 24.9824 8.7523 24.7918 8.75H10.2085C9.82171 8.75 9.45078 8.90365 9.17729 9.17714C8.9038 9.45063 8.75016 9.82156 8.75016 10.2083C8.75016 10.5951 8.9038 10.966 9.17729 11.2395C9.45078 11.513 9.82171 11.6667 10.2085 11.6667H21.2772L9.17307 23.7563C9.03638 23.8918 8.92789 24.0531 8.85386 24.2308C8.77982 24.4085 8.7417 24.5991 8.7417 24.7917C8.7417 24.9842 8.77982 25.1748 8.85386 25.3525C8.92789 25.5302 9.03638 25.6915 9.17307 25.8271C9.30864 25.9638 9.46994 26.0723 9.64765 26.1463C9.82536 26.2203 10.016 26.2585 10.2085 26.2585C10.401 26.2585 10.5916 26.2203 10.7693 26.1463C10.947 26.0723 11.1083 25.9638 11.2439 25.8271L23.3335 13.7229V24.7917C23.3335 25.1784 23.4871 25.5494 23.7606 25.8229C24.0341 26.0964 24.405 26.25 24.7918 26.25C25.1786 26.25 25.5495 26.0964 25.823 25.8229C26.0965 25.5494 26.2502 25.1784 26.2502 24.7917V10.2083C26.2479 10.0178 26.2082 9.82949 26.1335 9.65417Z" fill="#313131"/>
</g>
</svg>
