<svg width="14" height="14" viewBox="0 0 14 14" fill="none" xmlns="http://www.w3.org/2000/svg">
<path d="M8.75008 6.41666H7.58342V4.08332C7.58342 3.92861 7.52196 3.78024 7.41256 3.67084C7.30317 3.56145 7.15479 3.49999 7.00008 3.49999C6.84537 3.49999 6.697 3.56145 6.5876 3.67084C6.47821 3.78024 6.41675 3.92861 6.41675 4.08332V6.99999C6.41675 7.1547 6.47821 7.30307 6.5876 7.41247C6.697 7.52186 6.84537 7.58332 7.00008 7.58332H8.75008C8.90479 7.58332 9.05317 7.52186 9.16256 7.41247C9.27196 7.30307 9.33342 7.1547 9.33342 6.99999C9.33342 6.84528 9.27196 6.69691 9.16256 6.58751C9.05317 6.47811 8.90479 6.41666 8.75008 6.41666ZM7.00008 1.16666C5.84636 1.16666 4.71854 1.50878 3.75926 2.14975C2.79997 2.79073 2.0523 3.70177 1.61079 4.76767C1.16928 5.83357 1.05376 7.00646 1.27884 8.13802C1.50392 9.26957 2.05949 10.309 2.87529 11.1248C3.6911 11.9406 4.7305 12.4962 5.86206 12.7212C6.99361 12.9463 8.1665 12.8308 9.2324 12.3893C10.2983 11.9478 11.2093 11.2001 11.8503 10.2408C12.4913 9.28153 12.8334 8.15371 12.8334 6.99999C12.8317 5.45342 12.2166 3.97069 11.123 2.8771C10.0294 1.78351 8.54665 1.16838 7.00008 1.16666ZM7.00008 11.6667C6.0771 11.6667 5.17485 11.393 4.40742 10.8802C3.63999 10.3674 3.04186 9.63857 2.68865 8.78585C2.33544 7.93312 2.24302 6.99481 2.42309 6.08957C2.60315 5.18432 3.04761 4.3528 3.70025 3.70016C4.3529 3.04751 5.18442 2.60306 6.08966 2.42299C6.99491 2.24293 7.93322 2.33534 8.78594 2.68855C9.63866 3.04176 10.3675 3.6399 10.8803 4.40733C11.3931 5.17476 11.6667 6.07701 11.6667 6.99999C11.6653 8.23723 11.1732 9.42339 10.2984 10.2983C9.42349 11.1731 8.23733 11.6652 7.00008 11.6667Z" fill="#212121"/>
</svg>
