<svg width="12" height="12" viewBox="0 0 12 12" fill="none" xmlns="http://www.w3.org/2000/svg">
<path d="M6.00008 0.166656C4.84636 0.166656 3.71854 0.508776 2.75926 1.14975C1.79997 1.79073 1.0523 2.70177 0.610787 3.76767C0.169276 4.83357 0.0537561 6.00646 0.278837 7.13802C0.503917 8.26957 1.05949 9.30897 1.87529 10.1248C2.6911 10.9406 3.7305 11.4962 4.86206 11.7212C5.99361 11.9463 7.1665 11.8308 8.2324 11.3893C9.29831 10.9478 10.2093 10.2001 10.8503 9.24082C11.4913 8.28153 11.8334 7.15371 11.8334 5.99999C11.8317 4.45342 11.2166 2.97069 10.123 1.8771C9.02938 0.78351 7.54665 0.168376 6.00008 0.166656ZM6.00008 10.6667C5.0771 10.6667 4.17485 10.393 3.40742 9.88018C2.63999 9.3674 2.04186 8.63857 1.68865 7.78585C1.33544 6.93312 1.24302 5.99481 1.42309 5.08957C1.60315 4.18432 2.04761 3.3528 2.70025 2.70016C3.3529 2.04751 4.18442 1.60306 5.08966 1.42299C5.99491 1.24293 6.93322 1.33534 7.78594 1.68855C8.63866 2.04176 9.36749 2.6399 9.88027 3.40733C10.3931 4.17476 10.6667 5.07701 10.6667 5.99999C10.6653 7.23723 10.1732 8.42339 9.29835 9.29826C8.42349 10.1731 7.23733 10.6652 6.00008 10.6667ZM6.00008 5.70832C5.84537 5.70832 5.697 5.76978 5.5876 5.87918C5.47821 5.98857 5.41675 6.13695 5.41675 6.29166V8.04166C5.41675 8.19637 5.47821 8.34474 5.5876 8.45414C5.697 8.56353 5.84537 8.62499 6.00008 8.62499C6.15479 8.62499 6.30317 8.56353 6.41256 8.45414C6.52196 8.34474 6.58342 8.19637 6.58342 8.04166V6.29166C6.58342 6.13695 6.52196 5.98857 6.41256 5.87918C6.30317 5.76978 6.15479 5.70832 6.00008 5.70832ZM6.00008 3.37499C5.85587 3.37499 5.71489 3.41775 5.59498 3.49788C5.47507 3.578 5.38161 3.69188 5.32642 3.82512C5.27123 3.95835 5.25679 4.10497 5.28493 4.24641C5.31306 4.38785 5.38251 4.51778 5.48449 4.61976C5.58646 4.72173 5.71639 4.79118 5.85783 4.81931C5.99927 4.84745 6.14589 4.83301 6.27912 4.77782C6.41236 4.72263 6.52624 4.62917 6.60636 4.50926C6.68649 4.38935 6.72925 4.24837 6.72925 4.10416C6.72925 3.91077 6.65243 3.7253 6.51568 3.58856C6.37894 3.45181 6.19347 3.37499 6.00008 3.37499Z" fill="#313131"/>
</svg>
