<svg width="16" height="16" viewBox="0 0 16 16" fill="none" xmlns="http://www.w3.org/2000/svg">
<g id="Campfire" clip-path="url(#clip0_230_6990)">
<path id="Vector" d="M3.0708 10.4591L13.1161 13.6554" stroke="white" stroke-linecap="round" stroke-linejoin="round"/>
<path id="Vector_2" d="M13.1161 10.4591L3.0708 13.6554" stroke="white" stroke-linecap="round" stroke-linejoin="round"/>
<path id="Vector_3" d="M9.46326 8.63272C9.46326 8.99602 9.31894 9.34444 9.06205 9.60133C8.80516 9.85822 8.45674 10.0025 8.09345 10.0025C7.73015 10.0025 7.38173 9.85822 7.12484 9.60133C6.86795 9.34444 6.72363 8.99602 6.72363 8.63272C6.72363 7.26291 8.09345 6.3497 8.09345 6.3497C8.09345 6.3497 9.46326 7.26291 9.46326 8.63272Z" stroke="white" stroke-linecap="round" stroke-linejoin="round"/>
<path id="Vector_4" d="M11.0613 7.0346C11.0613 7.82174 10.7487 8.57665 10.1921 9.13324C9.63547 9.68984 8.88056 10.0025 8.09342 10.0025C7.30627 10.0025 6.55137 9.68984 5.99477 9.13324C5.43818 8.57665 5.12549 7.82174 5.12549 7.0346C5.12549 4.52327 8.09342 2.69685 8.09342 2.69685C8.09342 2.69685 11.0613 4.52327 11.0613 7.0346Z" stroke="white" stroke-linecap="round" stroke-linejoin="round"/>
</g>
<defs>
<clipPath id="clip0_230_6990">
<rect width="14.6114" height="14.6114" fill="white" transform="translate(0.787598 0.870438)"/>
</clipPath>
</defs>
</svg>
