<svg width="16" height="16" viewBox="0 0 16 16" fill="none" xmlns="http://www.w3.org/2000/svg">
<g id="Dog" clip-path="url(#clip0_230_7007)">
<path id="Vector" d="M7.97412 11.8289V13.1988" stroke="white" stroke-linecap="round" stroke-linejoin="round"/>
<path id="Vector_2" d="M8.88745 10.9157L7.97424 11.829L7.06104 10.9157" stroke="white" stroke-linecap="round" stroke-linejoin="round"/>
<path id="Vector_3" d="M6.60449 3.61006H9.34412" stroke="white" stroke-linecap="round" stroke-linejoin="round"/>
<path id="Vector_4" d="M6.60425 3.61007L3.54329 2.71056C3.48289 2.69549 3.42006 2.69293 3.35863 2.70303C3.29721 2.71314 3.23851 2.73569 3.18612 2.76932C3.13374 2.80294 3.08878 2.84692 3.05401 2.89855C3.01925 2.95018 2.9954 3.00838 2.98395 3.06956L2.04677 8.09221C1.95887 8.56195 2.56045 8.8342 2.85496 8.45864L6.60425 3.61007Z" stroke="white" stroke-linecap="round" stroke-linejoin="round"/>
<path id="Vector_5" d="M9.34375 3.61007L12.4047 2.71056C12.4651 2.69549 12.5279 2.69293 12.5894 2.70303C12.6508 2.71314 12.7095 2.73569 12.7619 2.76932C12.8143 2.80294 12.8592 2.84692 12.894 2.89855C12.9288 2.95018 12.9526 3.00838 12.9641 3.06956L13.9012 8.09221C13.9891 8.56195 13.3876 8.8342 13.093 8.45864L9.34375 3.61007Z" stroke="white" stroke-linecap="round" stroke-linejoin="round"/>
<path id="Vector_6" d="M5.91928 9.54593C6.29755 9.54593 6.60419 9.23929 6.60419 8.86102C6.60419 8.48276 6.29755 8.17612 5.91928 8.17612C5.54102 8.17612 5.23438 8.48276 5.23438 8.86102C5.23438 9.23929 5.54102 9.54593 5.91928 9.54593Z" fill="white"/>
<path id="Vector_7" d="M10.0287 9.54593C10.4069 9.54593 10.7136 9.23929 10.7136 8.86102C10.7136 8.48276 10.4069 8.17612 10.0287 8.17612C9.65039 8.17612 9.34375 8.48276 9.34375 8.86102C9.34375 9.23929 9.65039 9.54593 10.0287 9.54593Z" fill="white"/>
<path id="Vector_8" d="M12.5403 7.7412V11.3723C12.5403 11.8567 12.3479 12.3213 12.0054 12.6638C11.6628 13.0063 11.1983 13.1988 10.7139 13.1988H5.23462C4.75023 13.1988 4.28567 13.0063 3.94315 12.6638C3.60063 12.3213 3.4082 11.8567 3.4082 11.3723V7.7412" stroke="white" stroke-linecap="round" stroke-linejoin="round"/>
</g>
<defs>
<clipPath id="clip0_230_7007">
<rect width="14.6114" height="14.6114" fill="white" transform="translate(0.668457 0.870438)"/>
</clipPath>
</defs>
</svg>
