<svg width="24" height="24" viewBox="0 0 24 24" fill="none" xmlns="http://www.w3.org/2000/svg">
<g id="Campfire" clip-path="url(#clip0_444_306)">
<path id="Vector" d="M3.65503 15.3514L19.7375 20.4686" stroke="#D97E4A" stroke-width="2" stroke-linecap="round" stroke-linejoin="round"/>
<path id="Vector_2" d="M19.7375 15.3514L3.65503 20.4686" stroke="#D97E4A" stroke-width="2" stroke-linecap="round" stroke-linejoin="round"/>
<path id="Vector_3" d="M13.8893 12.4273C13.8893 13.0089 13.6582 13.5668 13.247 13.978C12.8357 14.3893 12.2779 14.6204 11.6962 14.6204C11.1146 14.6204 10.5568 14.3893 10.1455 13.978C9.73423 13.5668 9.50317 13.0089 9.50317 12.4273C9.50317 10.2343 11.6962 8.77222 11.6962 8.77222C11.6962 8.77222 13.8893 10.2343 13.8893 12.4273Z" stroke="#D97E4A" stroke-width="2" stroke-linecap="round" stroke-linejoin="round"/>
<path id="Vector_4" d="M16.4478 9.86876C16.4478 11.129 15.9472 12.3376 15.0561 13.2287C14.165 14.1198 12.9564 14.6204 11.6962 14.6204C10.436 14.6204 9.2274 14.1198 8.3363 13.2287C7.4452 12.3376 6.94458 11.129 6.94458 9.86876C6.94458 5.84815 11.6962 2.92407 11.6962 2.92407C11.6962 2.92407 16.4478 5.84815 16.4478 9.86876Z" stroke="#D97E4A" stroke-width="2" stroke-linecap="round" stroke-linejoin="round"/>
</g>
<defs>
<clipPath id="clip0_444_306">
<rect width="23.3926" height="23.3926" fill="white"/>
</clipPath>
</defs>
</svg>
