<svg width="24" height="24" viewBox="0 0 24 24" fill="none" xmlns="http://www.w3.org/2000/svg">
<g id="Dog" clip-path="url(#clip0_444_325)">
<path id="Vector" d="M11.6963 17.9372V20.1303" stroke="#D97E4A" stroke-width="2" stroke-linecap="round" stroke-linejoin="round"/>
<path id="Vector_2" d="M13.1585 16.4751L11.6964 17.9371L10.2344 16.4751" stroke="#D97E4A" stroke-width="2" stroke-linecap="round" stroke-linejoin="round"/>
<path id="Vector_3" d="M9.50317 4.77881H13.8893" stroke="#D97E4A" stroke-width="2" stroke-linecap="round" stroke-linejoin="round"/>
<path id="Vector_4" d="M9.5035 4.77881L4.60293 3.3387C4.50624 3.31457 4.40563 3.31047 4.3073 3.32665C4.20897 3.34283 4.11498 3.37894 4.03111 3.43277C3.94724 3.4866 3.87527 3.55701 3.8196 3.63967C3.76394 3.72234 3.72577 3.81551 3.70743 3.91346L2.20701 11.9547C2.06629 12.7067 3.02941 13.1426 3.50092 12.5413L9.5035 4.77881Z" stroke="#D97E4A" stroke-width="2" stroke-linecap="round" stroke-linejoin="round"/>
<path id="Vector_5" d="M13.8894 4.77881L18.79 3.3387C18.8867 3.31457 18.9873 3.31047 19.0856 3.32665C19.1839 3.34283 19.2779 3.37894 19.3618 3.43277C19.4457 3.4866 19.5176 3.55701 19.5733 3.63967C19.629 3.72234 19.6671 3.81551 19.6855 3.91346L21.1859 11.9547C21.3266 12.7067 20.3635 13.1426 19.892 12.5413L13.8894 4.77881Z" stroke="#D97E4A" stroke-width="2" stroke-linecap="round" stroke-linejoin="round"/>
<path id="Vector_6" d="M8.40683 14.282C9.01243 14.282 9.50336 13.7911 9.50336 13.1855C9.50336 12.5799 9.01243 12.089 8.40683 12.089C7.80124 12.089 7.3103 12.5799 7.3103 13.1855C7.3103 13.7911 7.80124 14.282 8.40683 14.282Z" fill="#D97E4A"/>
<path id="Vector_7" d="M14.9859 14.282C15.5915 14.282 16.0825 13.7911 16.0825 13.1855C16.0825 12.5799 15.5915 12.089 14.9859 12.089C14.3803 12.089 13.8894 12.5799 13.8894 13.1855C13.8894 13.7911 14.3803 14.282 14.9859 14.282Z" fill="#D97E4A"/>
<path id="Vector_8" d="M19.0066 11.3927V17.2061C19.0066 17.9816 18.6985 18.7254 18.1502 19.2738C17.6018 19.8221 16.8581 20.1302 16.0825 20.1302H7.31031C6.53479 20.1302 5.79104 19.8221 5.24267 19.2738C4.6943 18.7254 4.38623 17.9816 4.38623 17.2061V11.3927" stroke="#D97E4A" stroke-width="2" stroke-linecap="round" stroke-linejoin="round"/>
</g>
<defs>
<clipPath id="clip0_444_325">
<rect width="23.3926" height="23.3926" fill="white" transform="translate(0 0.3927)"/>
</clipPath>
</defs>
</svg>
