<svg width="24" height="25" viewBox="0 0 24 25" fill="none" xmlns="http://www.w3.org/2000/svg">
<g id="WifiHigh" clip-path="url(#clip0_444_353)">
<path id="Vector" d="M11.6964 20.523C12.302 20.523 12.7929 20.032 12.7929 19.4264C12.7929 18.8208 12.302 18.3299 11.6964 18.3299C11.0908 18.3299 10.5999 18.8208 10.5999 19.4264C10.5999 20.032 11.0908 20.523 11.6964 20.523Z" fill="#D97E4A"/>
<path id="Vector_2" d="M21.1996 9.30089C18.5201 7.1033 15.1618 5.90228 11.6964 5.90228C8.23095 5.90228 4.87263 7.1033 2.19312 9.30089" stroke="#D97E4A" stroke-width="2" stroke-linecap="round" stroke-linejoin="round"/>
<path id="Vector_3" d="M18.2755 12.5731C16.403 11.0907 14.0847 10.2841 11.6964 10.2841C9.30806 10.2841 6.98975 11.0907 5.11719 12.5731" stroke="#D97E4A" stroke-width="2" stroke-linecap="round" stroke-linejoin="round"/>
<path id="Vector_4" d="M15.3515 15.8627C14.2893 15.0901 13.0097 14.674 11.6964 14.674C10.383 14.674 9.10338 15.0901 8.04126 15.8627" stroke="#D97E4A" stroke-width="2" stroke-linecap="round" stroke-linejoin="round"/>
</g>
<defs>
<clipPath id="clip0_444_353">
<rect width="23.3926" height="23.3926" fill="white" transform="translate(0 0.7854)"/>
</clipPath>
</defs>
</svg>
