<svg width="32" height="33" viewBox="0 0 32 33" fill="none" xmlns="http://www.w3.org/2000/svg">
<g clip-path="url(#clip0_905_313)">
<path d="M16 27.2522C16.8284 27.2522 17.5 26.5806 17.5 25.7522C17.5 24.9238 16.8284 24.2522 16 24.2522C15.1716 24.2522 14.5 24.9238 14.5 25.7522C14.5 26.5806 15.1716 27.2522 16 27.2522Z" fill="#D97E4A"/>
<path d="M29 11.901C25.3346 8.89477 20.7405 7.25183 16 7.25183C11.2595 7.25183 6.66544 8.89477 3 11.901" stroke="#D97E4A" stroke-width="2" stroke-linecap="round" stroke-linejoin="round"/>
<path d="M25 16.3772C22.4384 14.3493 19.2671 13.246 16 13.246C12.7329 13.246 9.56158 14.3493 7 16.3772" stroke="#D97E4A" stroke-width="2" stroke-linecap="round" stroke-linejoin="round"/>
<path d="M21 20.8772C19.5471 19.8204 17.7966 19.2511 16 19.2511C14.2034 19.2511 12.4529 19.8204 11 20.8772" stroke="#D97E4A" stroke-width="2" stroke-linecap="round" stroke-linejoin="round"/>
</g>
<defs>
<clipPath id="clip0_905_313">
<rect width="32" height="32" fill="white" transform="translate(0 0.252197)"/>
</clipPath>
</defs>
</svg>
